<?xml version="1.0" encoding="utf-8"?>
<!-- Generator: Adobe Illustrator 21.1.0, SVG Export Plug-In . SVG Version: 6.00 Build 0)  -->
<svg version="1.1" id="Laag_1" xmlns="http://www.w3.org/2000/svg" xmlns:xlink="http://www.w3.org/1999/xlink" x="0px" y="0px"
	 viewBox="0 0 120 120" style="enable-background:new 0 0 120 120;" xml:space="preserve">
<style type="text/css">
	.st0{fill:none;}
	.st1{fill:none;stroke:#FFFFFF;stroke-width:0.2;stroke-miterlimit:10;}
	.st2{fill:#E35B2A;}
	.st3{fill:url(#);}
	.st4{clip-path:url(#SVGID_1_);}
	.st5{clip-path:url(#SVGID_2_);}
	.st6{clip-path:url(#SVGID_3_);}
	.st7{clip-path:url(#SVGID_4_);}
	.st8{clip-path:url(#SVGID_6_);}
	.st9{clip-path:url(#SVGID_7_);}
	.st10{clip-path:url(#SVGID_9_);}
	.st11{clip-path:url(#SVGID_10_);}
	.st12{clip-path:url(#SVGID_11_);}
	.st13{clip-path:url(#SVGID_12_);}
	.st14{clip-path:url(#SVGID_13_);}
	.st15{clip-path:url(#SVGID_14_);}
	.st16{clip-path:url(#SVGID_15_);}
	.st17{clip-path:url(#SVGID_16_);}
	.st18{clip-path:url(#SVGID_17_);}
	.st19{clip-path:url(#SVGID_18_);}
	.st20{clip-path:url(#SVGID_19_);}
	.st21{clip-path:url(#SVGID_20_);}
	.st22{clip-path:url(#SVGID_21_);}
	.st23{clip-path:url(#SVGID_22_);}
	.st24{clip-path:url(#SVGID_23_);}
	.st25{clip-path:url(#SVGID_24_);}
	.st26{clip-path:url(#SVGID_25_);}
	.st27{clip-path:url(#SVGID_26_);}
	.st28{clip-path:url(#SVGID_27_);}
	.st29{clip-path:url(#SVGID_28_);}
	.st30{clip-path:url(#SVGID_29_);}
	.st31{clip-path:url(#SVGID_30_);}
	.st32{clip-path:url(#SVGID_31_);}
	.st33{clip-path:url(#SVGID_32_);}
	.st34{clip-path:url(#SVGID_33_);}
	.st35{clip-path:url(#SVGID_34_);}
	.st36{clip-path:url(#SVGID_35_);}
	.st37{clip-path:url(#SVGID_36_);}
	.st38{clip-path:url(#SVGID_37_);}
	.st39{clip-path:url(#SVGID_38_);}
	.st40{clip-path:url(#SVGID_39_);}
	.st41{clip-path:url(#SVGID_40_);}
	.st42{clip-path:url(#SVGID_41_);}
	.st43{clip-path:url(#SVGID_42_);}
	.st44{clip-path:url(#SVGID_43_);}
	.st45{clip-path:url(#SVGID_44_);}
	.st46{clip-path:url(#SVGID_45_);}
	.st47{clip-path:url(#SVGID_46_);}
	.st48{clip-path:url(#SVGID_47_);}
	.st49{clip-path:url(#SVGID_48_);}
	.st50{clip-path:url(#SVGID_49_);}
	.st51{clip-path:url(#SVGID_50_);}
	.st52{clip-path:url(#SVGID_51_);}
	.st53{clip-path:url(#SVGID_52_);}
	.st54{clip-path:url(#SVGID_53_);}
	.st55{fill:url(#SVGID_54_);stroke:#FFFFFF;stroke-miterlimit:10;}
	.st56{fill:#FFFFFF;}
</style>
<pattern  x="-40" y="-506.4" width="8.4" height="6.3" patternUnits="userSpaceOnUse" id="Nieuwe_patroonstaal_5" viewBox="2.7 -12.6 8.4 6.3" style="overflow:visible;">
	<g>
		<rect x="2.7" y="-12.6" class="st0" width="8.4" height="6.3"/>
		<g>
			<line class="st1" x1="10" y1="-6.3" x2="13.1" y2="0"/>
			<line class="st1" x1="10.7" y1="-6.3" x2="13.8" y2="0"/>
		</g>
		<g>
			<line class="st1" x1="1.5" y1="-6.3" x2="4.7" y2="0"/>
			<line class="st1" x1="2.2" y1="-6.3" x2="5.4" y2="0"/>
			<line class="st1" x1="2.9" y1="-6.3" x2="6.1" y2="0"/>
			<line class="st1" x1="3.6" y1="-6.3" x2="6.8" y2="0"/>
			<line class="st1" x1="4.3" y1="-6.3" x2="7.5" y2="0"/>
			<line class="st1" x1="5" y1="-6.3" x2="8.2" y2="0"/>
			<line class="st1" x1="5.7" y1="-6.3" x2="8.9" y2="0"/>
			<line class="st1" x1="6.4" y1="-6.3" x2="9.6" y2="0"/>
			<line class="st1" x1="7.1" y1="-6.3" x2="10.3" y2="0"/>
			<line class="st1" x1="7.8" y1="-6.3" x2="11" y2="0"/>
			<line class="st1" x1="8.5" y1="-6.3" x2="11.7" y2="0"/>
			<line class="st1" x1="9.2" y1="-6.3" x2="12.4" y2="0"/>
		</g>
		<g>
			<line class="st1" x1="0.1" y1="-6.3" x2="3.3" y2="0"/>
			<line class="st1" x1="0.8" y1="-6.3" x2="4" y2="0"/>
		</g>
		<g>
			<line class="st1" x1="10" y1="-12.6" x2="13.1" y2="-6.3"/>
			<line class="st1" x1="10.7" y1="-12.6" x2="13.8" y2="-6.3"/>
		</g>
		<g>
			<line class="st1" x1="1.5" y1="-12.6" x2="4.7" y2="-6.3"/>
			<line class="st1" x1="2.2" y1="-12.6" x2="5.4" y2="-6.3"/>
			<line class="st1" x1="2.9" y1="-12.6" x2="6.1" y2="-6.3"/>
			<line class="st1" x1="3.6" y1="-12.6" x2="6.8" y2="-6.3"/>
			<line class="st1" x1="4.3" y1="-12.6" x2="7.5" y2="-6.3"/>
			<line class="st1" x1="5" y1="-12.6" x2="8.2" y2="-6.3"/>
			<line class="st1" x1="5.7" y1="-12.6" x2="8.9" y2="-6.3"/>
			<line class="st1" x1="6.4" y1="-12.6" x2="9.6" y2="-6.3"/>
			<line class="st1" x1="7.1" y1="-12.6" x2="10.3" y2="-6.3"/>
			<line class="st1" x1="7.8" y1="-12.6" x2="11" y2="-6.3"/>
			<line class="st1" x1="8.5" y1="-12.6" x2="11.7" y2="-6.3"/>
			<line class="st1" x1="9.2" y1="-12.6" x2="12.4" y2="-6.3"/>
		</g>
		<g>
			<line class="st1" x1="0.1" y1="-12.6" x2="3.3" y2="-6.3"/>
			<line class="st1" x1="0.8" y1="-12.6" x2="4" y2="-6.3"/>
		</g>
		<g>
			<line class="st1" x1="10" y1="-18.9" x2="13.1" y2="-12.6"/>
			<line class="st1" x1="10.7" y1="-18.9" x2="13.8" y2="-12.6"/>
		</g>
		<g>
			<line class="st1" x1="1.5" y1="-18.9" x2="4.7" y2="-12.6"/>
			<line class="st1" x1="2.2" y1="-18.9" x2="5.4" y2="-12.6"/>
			<line class="st1" x1="2.9" y1="-18.9" x2="6.1" y2="-12.6"/>
			<line class="st1" x1="3.6" y1="-18.9" x2="6.8" y2="-12.6"/>
			<line class="st1" x1="4.3" y1="-18.9" x2="7.5" y2="-12.6"/>
			<line class="st1" x1="5" y1="-18.9" x2="8.2" y2="-12.6"/>
			<line class="st1" x1="5.7" y1="-18.9" x2="8.9" y2="-12.6"/>
			<line class="st1" x1="6.4" y1="-18.9" x2="9.6" y2="-12.6"/>
			<line class="st1" x1="7.1" y1="-18.9" x2="10.3" y2="-12.6"/>
			<line class="st1" x1="7.8" y1="-18.9" x2="11" y2="-12.6"/>
			<line class="st1" x1="8.5" y1="-18.9" x2="11.7" y2="-12.6"/>
			<line class="st1" x1="9.2" y1="-18.9" x2="12.4" y2="-12.6"/>
		</g>
		<g>
			<line class="st1" x1="0.1" y1="-18.9" x2="3.3" y2="-12.6"/>
			<line class="st1" x1="0.8" y1="-18.9" x2="4" y2="-12.6"/>
		</g>
	</g>
</pattern>
<pattern  id="SVGID_1_" xlink:href="#Nieuwe_patroonstaal_5" patternTransform="matrix(3.1361 0 0 3.1361 17179.3926 15967.4365)">
</pattern>
<path style="fill:url(#SVGID_1_);stroke:#FFFFFF;stroke-miterlimit:10;" d="M17.1,96.2c0-17.6,12-30.2,24-31.2
	c7.4-0.7,10.6-7,5.6-11.2c-5.1-4.2-9-10.2-9-17.4c0-11.8,9.5-21.3,21.3-21.3s21.3,9.5,21.3,21.3c0,7.2-3.8,13.1-9,17.4
	c-5,4.1-1.8,10.5,5.6,11.2c12,1.1,24,13.6,24,31.2c0,7.3-1.6,8.6-9.5,8.6s-66.7,0-66.7,0C19.2,104.8,17.1,102.5,17.1,96.2z"/>
<g>
	<path class="st56" d="M90.6,105.4h-65c-6.3,0-9.1-3.1-9.1-10.2c0-18.5,13-31.1,25-32.2c3-0.3,5.4-1.7,6-3.7c0.4-1.4-0.1-2.8-1.6-4
		c-6.1-5-9.4-11.5-9.4-18.3c0-12.4,10.1-22.5,22.5-22.5S81.5,24.6,81.5,37c0,6.8-3.3,13.3-9.4,18.3c-1.4,1.2-2,2.6-1.6,4
		c0.6,2,3,3.5,6,3.7c12,1.1,25,13.7,25,32.2C101.6,103.9,98.7,105.4,90.6,105.4z M59,18.1c-10.5,0-19,8.5-19,19
		c0,5.7,2.9,11.3,8.1,15.6c2.5,2.1,3.5,5,2.7,7.8c-1,3.4-4.6,5.8-9.1,6.2c-10.5,0.9-21.8,12.2-21.8,28.7c0,5.7,1.7,6.6,5.6,6.6h65
		c7.1,0,7.5-0.7,7.5-6.6c0-16.5-11.3-27.8-21.8-28.7c-4.5-0.4-8.1-2.8-9.1-6.2c-0.9-2.8,0.1-5.7,2.7-7.8C75.1,48.3,78,42.8,78,37
		C78,26.6,69.5,18.1,59,18.1z"/>
</g>
</svg>
