<?xml version="1.0" encoding="utf-8"?>
<!-- Generator: Adobe Illustrator 21.1.0, SVG Export Plug-In . SVG Version: 6.00 Build 0)  -->
<svg version="1.1" id="Laag_1" xmlns="http://www.w3.org/2000/svg" xmlns:xlink="http://www.w3.org/1999/xlink" x="0px" y="0px"
	 viewBox="0 0 120 120" style="enable-background:new 0 0 120 120;" xml:space="preserve">
<style type="text/css">
	.st0{fill:#E35B2A;}
	.st1{fill:url(#);}
	.st2{clip-path:url(#SVGID_1_);}
	.st3{clip-path:url(#SVGID_2_);}
	.st4{clip-path:url(#SVGID_3_);}
	.st5{clip-path:url(#SVGID_4_);}
	.st6{clip-path:url(#SVGID_6_);}
	.st7{clip-path:url(#SVGID_7_);}
	.st8{clip-path:url(#SVGID_9_);}
	.st9{clip-path:url(#SVGID_10_);}
	.st10{clip-path:url(#SVGID_11_);}
	.st11{clip-path:url(#SVGID_12_);}
	.st12{clip-path:url(#SVGID_13_);}
	.st13{clip-path:url(#SVGID_14_);}
	.st14{clip-path:url(#SVGID_15_);}
	.st15{clip-path:url(#SVGID_16_);}
	.st16{clip-path:url(#SVGID_17_);}
	.st17{clip-path:url(#SVGID_18_);}
	.st18{clip-path:url(#SVGID_19_);}
	.st19{clip-path:url(#SVGID_20_);}
	.st20{clip-path:url(#SVGID_21_);}
	.st21{clip-path:url(#SVGID_22_);}
	.st22{clip-path:url(#SVGID_23_);}
	.st23{clip-path:url(#SVGID_24_);}
	.st24{clip-path:url(#SVGID_25_);}
	.st25{clip-path:url(#SVGID_26_);}
	.st26{clip-path:url(#SVGID_27_);}
	.st27{clip-path:url(#SVGID_28_);}
	.st28{clip-path:url(#SVGID_29_);}
	.st29{clip-path:url(#SVGID_30_);}
	.st30{clip-path:url(#SVGID_31_);}
	.st31{clip-path:url(#SVGID_32_);}
	.st32{clip-path:url(#SVGID_33_);}
	.st33{clip-path:url(#SVGID_34_);}
	.st34{clip-path:url(#SVGID_35_);}
	.st35{clip-path:url(#SVGID_36_);}
	.st36{clip-path:url(#SVGID_37_);}
	.st37{clip-path:url(#SVGID_38_);}
	.st38{clip-path:url(#SVGID_39_);}
	.st39{clip-path:url(#SVGID_40_);}
	.st40{clip-path:url(#SVGID_41_);}
	.st41{clip-path:url(#SVGID_42_);}
	.st42{clip-path:url(#SVGID_43_);}
	.st43{clip-path:url(#SVGID_44_);}
	.st44{clip-path:url(#SVGID_45_);}
	.st45{clip-path:url(#SVGID_46_);}
	.st46{clip-path:url(#SVGID_47_);}
	.st47{clip-path:url(#SVGID_48_);}
	.st48{clip-path:url(#SVGID_49_);}
	.st49{clip-path:url(#SVGID_50_);}
	.st50{clip-path:url(#SVGID_51_);}
	.st51{clip-path:url(#SVGID_52_);}
	.st52{clip-path:url(#SVGID_53_);}
	.st53{fill:url(#);stroke:#FFFFFF;stroke-miterlimit:10;}
	.st54{fill:#FFFFFF;}
</style>
<g>
	<path class="st54" d="M91.6,105.4h-65c-6.3,0-9.1-3.1-9.1-10.2c0-18.5,13-31.1,25-32.2c3-0.3,5.4-1.7,6-3.7c0.4-1.4-0.1-2.8-1.6-4
		c-6.1-5-9.4-11.5-9.4-18.3c0-12.4,10.1-22.5,22.5-22.5S82.5,24.6,82.5,37c0,6.8-3.3,13.3-9.4,18.3c-1.4,1.2-2,2.6-1.6,4
		c0.6,2,3,3.5,6,3.7c12,1.1,25,13.7,25,32.2C102.6,103.9,99.7,105.4,91.6,105.4z M60,18.1c-10.5,0-19,8.5-19,19
		c0,5.7,2.9,11.3,8.1,15.6c2.5,2.1,3.5,5,2.7,7.8c-1,3.4-4.6,5.8-9.1,6.2c-10.5,0.9-21.8,12.2-21.8,28.7c0,5.7,1.7,6.6,5.6,6.6h65
		c7.1,0,7.5-0.7,7.5-6.6c0-16.5-11.3-27.8-21.8-28.7c-4.5-0.4-8.1-2.8-9.1-6.2c-0.9-2.8,0.1-5.7,2.7-7.8C76.1,48.3,79,42.8,79,37
		C79,26.6,70.5,18.1,60,18.1z"/>
</g>
</svg>
